G04*
G04 #@! TF.GenerationSoftware,Altium Limited,Altium Designer,21.0.9 (235)*
G04*
G04 Layer_Color=16711935*
%FSLAX25Y25*%
%MOIN*%
G70*
G04*
G04 #@! TF.SameCoordinates,53026D08-29A5-4720-9F6D-F62647EDBEAA*
G04*
G04*
G04 #@! TF.FilePolarity,Negative*
G04*
G01*
G75*
%ADD35C,0.08674*%
%ADD36R,0.08674X0.08674*%
%ADD37R,0.07887X0.07887*%
%ADD38C,0.07887*%
%ADD39R,0.08674X0.07099*%
%ADD40C,0.05800*%
D35*
X259843Y379764D02*
D03*
X230472Y429134D02*
D03*
X210472D02*
D03*
X460630Y297087D02*
D03*
Y317087D02*
D03*
Y360079D02*
D03*
Y380079D02*
D03*
X362205Y389764D02*
D03*
X341024Y367953D02*
D03*
X336024Y387953D02*
D03*
X331024Y367953D02*
D03*
X326024Y387953D02*
D03*
X321024Y367953D02*
D03*
X316024Y387953D02*
D03*
X311024Y367953D02*
D03*
X306024Y387953D02*
D03*
X301024Y367953D02*
D03*
X296024Y387953D02*
D03*
X291024Y367953D02*
D03*
X286024Y387953D02*
D03*
X281024Y367953D02*
D03*
X276024Y387953D02*
D03*
D36*
X259843Y389764D02*
D03*
X362205Y379764D02*
D03*
D37*
X266772Y423071D02*
D03*
D38*
Y433071D02*
D03*
X276772Y423071D02*
D03*
Y433071D02*
D03*
X286772Y423071D02*
D03*
Y433071D02*
D03*
X296772Y423071D02*
D03*
Y433071D02*
D03*
X306772Y423071D02*
D03*
Y433071D02*
D03*
X316772Y423071D02*
D03*
Y433071D02*
D03*
X326772Y423071D02*
D03*
Y433071D02*
D03*
X336772Y423071D02*
D03*
Y433071D02*
D03*
X346772Y423071D02*
D03*
Y433071D02*
D03*
X356772Y423071D02*
D03*
Y433071D02*
D03*
X366772Y423071D02*
D03*
Y433071D02*
D03*
X376772Y423071D02*
D03*
Y433071D02*
D03*
X386772Y423071D02*
D03*
Y433071D02*
D03*
X396772Y423071D02*
D03*
Y433071D02*
D03*
X406772Y423071D02*
D03*
Y433071D02*
D03*
X416772Y423071D02*
D03*
Y433071D02*
D03*
X426772Y423071D02*
D03*
Y433071D02*
D03*
X436772Y423071D02*
D03*
Y433071D02*
D03*
X446772Y423071D02*
D03*
Y433071D02*
D03*
X456772Y423071D02*
D03*
Y433071D02*
D03*
D39*
X346024Y387953D02*
D03*
D40*
X226378Y293307D02*
D03*
X359351Y368256D02*
D03*
X326772Y346394D02*
D03*
X318898Y346457D02*
D03*
X367451Y338520D02*
D03*
X351351Y372256D02*
D03*
X298151Y350456D02*
D03*
X351461Y399960D02*
D03*
X244151Y340756D02*
D03*
X340551Y352656D02*
D03*
X222151Y360056D02*
D03*
X271251Y370956D02*
D03*
X267151Y358056D02*
D03*
X217151Y340556D02*
D03*
X230651Y406756D02*
D03*
X214151Y348156D02*
D03*
X206151Y341956D02*
D03*
X355315Y332156D02*
D03*
X235501Y340106D02*
D03*
M02*
