G04*
G04 #@! TF.GenerationSoftware,Altium Limited,Altium Designer,21.0.9 (235)*
G04*
G04 Layer_Color=8421504*
%FSLAX25Y25*%
%MOIN*%
G70*
G04*
G04 #@! TF.SameCoordinates,074C7CE2-B8ED-49E8-8598-2E4F6B166CDE*
G04*
G04*
G04 #@! TF.FilePolarity,Positive*
G04*
G01*
G75*
%ADD19R,0.12992X0.10630*%
%ADD20R,0.03150X0.03150*%
%ADD21R,0.03150X0.03150*%
%ADD22R,0.11024X0.05906*%
%ADD23R,0.11024X0.05315*%
%ADD24R,0.25591X0.23622*%
%ADD25R,0.13780X0.04724*%
%ADD26R,0.08661X0.03858*%
D19*
X416177Y292067D02*
D03*
Y321093D02*
D03*
X386677Y292067D02*
D03*
Y321093D02*
D03*
X357177Y292067D02*
D03*
Y321093D02*
D03*
X327677Y292067D02*
D03*
Y321093D02*
D03*
X298177Y292067D02*
D03*
Y321093D02*
D03*
X268677Y292067D02*
D03*
Y321093D02*
D03*
X239177Y292067D02*
D03*
Y321093D02*
D03*
X209677Y292067D02*
D03*
Y321093D02*
D03*
D20*
X321850Y338583D02*
D03*
X315945D02*
D03*
X374803Y350394D02*
D03*
X381102D02*
D03*
X365354Y362205D02*
D03*
X359055D02*
D03*
Y350394D02*
D03*
X365354D02*
D03*
X380906Y338583D02*
D03*
X375000D02*
D03*
X361220D02*
D03*
X355315D02*
D03*
X335630D02*
D03*
X341535D02*
D03*
X302165D02*
D03*
X296260D02*
D03*
X282480D02*
D03*
X276575D02*
D03*
X256890D02*
D03*
X262795D02*
D03*
D21*
X240947Y366128D02*
D03*
X247242Y366156D02*
D03*
X240947Y350380D02*
D03*
X247242Y350408D02*
D03*
X221262Y350380D02*
D03*
X227557Y350408D02*
D03*
X221262Y334632D02*
D03*
X227557Y334660D02*
D03*
X201577Y334632D02*
D03*
X207872Y334660D02*
D03*
X221262Y366128D02*
D03*
X227557Y366156D02*
D03*
X201577Y350380D02*
D03*
X207872Y350408D02*
D03*
X201577Y366128D02*
D03*
X207872Y366156D02*
D03*
D22*
X383957Y376811D02*
D03*
D23*
X383957Y394843D02*
D03*
D24*
X411319Y385758D02*
D03*
D25*
X398937Y350394D02*
D03*
X419961D02*
D03*
D26*
X236220Y379921D02*
D03*
Y397638D02*
D03*
X202559Y379921D02*
D03*
Y397638D02*
D03*
M02*
