M48
;Layer_Color=9474304
;FILE_FORMAT=2:5
INCH,TZ
;TYPE=PLATED
T1F00S00C0.02800
T2F00S00C0.04331
T3F00S00C0.04724
T4F00S00C0.05118
%
T01
X226378Y293307
X235501Y340106
X244151Y340756
X217151Y340556
X214151Y348156
X206151Y341956
X222151Y360056
X267151Y358056
X271251Y370956
X298151Y350456
X230651Y406756
X351461Y399960
X351351Y372256
X359351Y368256
X340551Y352656
X326772Y346394
X318898Y346457
X355315Y332156
X367451Y338520
T02
X266772Y423071
Y433071
X276772
Y423071
X286772
Y433071
X296772
Y423071
X306772
Y433071
X316772
Y423071
X326772
Y433071
X336772
Y423071
X346772
Y433071
X356772
Y423071
X366772
Y433071
X376772
Y423071
X386772
Y433071
X396772
Y423071
X406772
Y433071
X416772
Y423071
X426772
Y433071
X436772
Y423071
X446772
Y433071
X456772
Y423071
T03
X259843Y379764
Y389764
X362205
Y379764
T04
X460630Y297087
X311024Y367953
X301024
X291024
X281024
X286024Y387953
X296024
X306024
X276024
X230472Y429134
X210472
X316024Y387953
X326024
X336024
X346024
X341024Y367953
X331024
X321024
X460630Y360079
Y380079
Y317087
M30
