G04*
G04 #@! TF.GenerationSoftware,Altium Limited,Altium Designer,21.0.9 (235)*
G04*
G04 Layer_Color=128*
%FSLAX25Y25*%
%MOIN*%
G70*
G04*
G04 #@! TF.SameCoordinates,074C7CE2-B8ED-49E8-8598-2E4F6B166CDE*
G04*
G04*
G04 #@! TF.FilePolarity,Positive*
G04*
G01*
G75*
%ADD49C,0.00200*%
D49*
X257480Y379764D02*
X262205D01*
X259843Y377401D02*
Y382126D01*
X257480Y389764D02*
X262205D01*
X259843Y387402D02*
Y392126D01*
X264606Y423071D02*
X268937D01*
X266772Y420905D02*
Y425236D01*
X264606Y433071D02*
X268937D01*
X266772Y430905D02*
Y435236D01*
X274606Y423071D02*
X278937D01*
X276772Y420905D02*
Y425236D01*
X274606Y433071D02*
X278937D01*
X276772Y430905D02*
Y435236D01*
X284606Y423071D02*
X288937D01*
X286772Y420905D02*
Y425236D01*
X284606Y433071D02*
X288937D01*
X286772Y430905D02*
Y435236D01*
X294606Y423071D02*
X298937D01*
X296772Y420905D02*
Y425236D01*
X294606Y433071D02*
X298937D01*
X296772Y430905D02*
Y435236D01*
X304606Y423071D02*
X308937D01*
X306772Y420905D02*
Y425236D01*
X304606Y433071D02*
X308937D01*
X306772Y430905D02*
Y435236D01*
X314606Y423071D02*
X318937D01*
X316772Y420905D02*
Y425236D01*
X314606Y433071D02*
X318937D01*
X316772Y430905D02*
Y435236D01*
X324606Y423071D02*
X328937D01*
X326772Y420905D02*
Y425236D01*
X324606Y433071D02*
X328937D01*
X326772Y430905D02*
Y435236D01*
X334606Y423071D02*
X338937D01*
X336772Y420905D02*
Y425236D01*
X334606Y433071D02*
X338937D01*
X336772Y430905D02*
Y435236D01*
X344606Y423071D02*
X348937D01*
X346772Y420905D02*
Y425236D01*
X344606Y433071D02*
X348937D01*
X346772Y430905D02*
Y435236D01*
X354606Y423071D02*
X358937D01*
X356772Y420905D02*
Y425236D01*
X354606Y433071D02*
X358937D01*
X356772Y430905D02*
Y435236D01*
X364606Y423071D02*
X368937D01*
X366772Y420905D02*
Y425236D01*
X364606Y433071D02*
X368937D01*
X366772Y430905D02*
Y435236D01*
X374606Y423071D02*
X378937D01*
X376772Y420905D02*
Y425236D01*
X374606Y433071D02*
X378937D01*
X376772Y430905D02*
Y435236D01*
X384606Y423071D02*
X388937D01*
X386772Y420905D02*
Y425236D01*
X384606Y433071D02*
X388937D01*
X386772Y430905D02*
Y435236D01*
X394606Y423071D02*
X398937D01*
X396772Y420905D02*
Y425236D01*
X394606Y433071D02*
X398937D01*
X396772Y430905D02*
Y435236D01*
X404606Y423071D02*
X408937D01*
X406772Y420905D02*
Y425236D01*
X404606Y433071D02*
X408937D01*
X406772Y430905D02*
Y435236D01*
X414606Y423071D02*
X418937D01*
X416772Y420905D02*
Y425236D01*
X414606Y433071D02*
X418937D01*
X416772Y430905D02*
Y435236D01*
X424606Y423071D02*
X428937D01*
X426772Y420905D02*
Y425236D01*
X424606Y433071D02*
X428937D01*
X426772Y430905D02*
Y435236D01*
X434606Y423071D02*
X438937D01*
X436772Y420905D02*
Y425236D01*
X434606Y433071D02*
X438937D01*
X436772Y430905D02*
Y435236D01*
X444606Y423071D02*
X448937D01*
X446772Y420905D02*
Y425236D01*
X444606Y433071D02*
X448937D01*
X446772Y430905D02*
Y435236D01*
X454606Y423071D02*
X458937D01*
X456772Y420905D02*
Y425236D01*
X454606Y433071D02*
X458937D01*
X456772Y430905D02*
Y435236D01*
X227913Y429134D02*
X233032D01*
X230472Y426575D02*
Y431693D01*
X207913Y429134D02*
X213032D01*
X210472Y426575D02*
Y431693D01*
X458071Y297087D02*
X463189D01*
X460630Y294528D02*
Y299646D01*
X458071Y317087D02*
X463189D01*
X460630Y314528D02*
Y319646D01*
X458071Y360079D02*
X463189D01*
X460630Y357520D02*
Y362638D01*
X458071Y380079D02*
X463189D01*
X460630Y377520D02*
Y382638D01*
X359843Y389764D02*
X364567D01*
X362205Y387402D02*
Y392126D01*
X359843Y379764D02*
X364567D01*
X362205Y377401D02*
Y382126D01*
X343464Y387953D02*
X348583D01*
X346024Y385394D02*
Y390512D01*
X338464Y367953D02*
X343583D01*
X341024Y365394D02*
Y370512D01*
X333465Y387953D02*
X338583D01*
X336024Y385394D02*
Y390512D01*
X328465Y367953D02*
X333583D01*
X331024Y365394D02*
Y370512D01*
X323464Y387953D02*
X328583D01*
X326024Y385394D02*
Y390512D01*
X318464Y367953D02*
X323583D01*
X321024Y365394D02*
Y370512D01*
X313464Y387953D02*
X318583D01*
X316024Y385394D02*
Y390512D01*
X308465Y367953D02*
X313583D01*
X311024Y365394D02*
Y370512D01*
X303465Y387953D02*
X308583D01*
X306024Y385394D02*
Y390512D01*
X298464Y367953D02*
X303583D01*
X301024Y365394D02*
Y370512D01*
X293464Y387953D02*
X298583D01*
X296024Y385394D02*
Y390512D01*
X288464Y367953D02*
X293583D01*
X291024Y365394D02*
Y370512D01*
X283465Y387953D02*
X288583D01*
X286024Y385394D02*
Y390512D01*
X278465Y367953D02*
X283583D01*
X281024Y365394D02*
Y370512D01*
X273464Y387953D02*
X278583D01*
X276024Y385394D02*
Y390512D01*
X224978Y293307D02*
X227778D01*
X226378Y291907D02*
Y294707D01*
X357951Y368256D02*
X360751D01*
X359351Y366856D02*
Y369656D01*
X325372Y346394D02*
X328172D01*
X326772Y344994D02*
Y347794D01*
X317498Y346457D02*
X320298D01*
X318898Y345057D02*
Y347857D01*
X366051Y338520D02*
X368851D01*
X367451Y337120D02*
Y339920D01*
X349951Y372256D02*
X352751D01*
X351351Y370856D02*
Y373656D01*
X296751Y350456D02*
X299551D01*
X298151Y349056D02*
Y351856D01*
X350061Y399960D02*
X352861D01*
X351461Y398560D02*
Y401360D01*
X242751Y340756D02*
X245551D01*
X244151Y339356D02*
Y342156D01*
X339151Y352656D02*
X341951D01*
X340551Y351256D02*
Y354056D01*
X220751Y360056D02*
X223551D01*
X222151Y358656D02*
Y361456D01*
X269851Y370956D02*
X272651D01*
X271251Y369556D02*
Y372356D01*
X265751Y358056D02*
X268551D01*
X267151Y356656D02*
Y359456D01*
X215751Y340556D02*
X218551D01*
X217151Y339156D02*
Y341956D01*
X229251Y406756D02*
X232051D01*
X230651Y405356D02*
Y408156D01*
X212751Y348156D02*
X215551D01*
X214151Y346756D02*
Y349556D01*
X204751Y341956D02*
X207551D01*
X206151Y340556D02*
Y343356D01*
X353915Y332156D02*
X356715D01*
X355315Y330756D02*
Y333556D01*
X234101Y340106D02*
X236901D01*
X235501Y338706D02*
Y341506D01*
M02*
