G04*
G04 #@! TF.GenerationSoftware,Altium Limited,Altium Designer,21.0.9 (235)*
G04*
G04 Layer_Color=32896*
%FSLAX25Y25*%
%MOIN*%
G70*
G04*
G04 #@! TF.SameCoordinates,53026D08-29A5-4720-9F6D-F62647EDBEAA*
G04*
G04*
G04 #@! TF.FilePolarity,Positive*
G04*
G01*
G75*
%ADD11C,0.01000*%
D11*
X282465Y288525D02*
Y282527D01*
X279466D01*
X278466Y283527D01*
Y287525D01*
X279466Y288525D01*
X282465D01*
X273467Y282527D02*
X275467D01*
X276466Y283527D01*
Y285526D01*
X275467Y286526D01*
X273467D01*
X272468Y285526D01*
Y284526D01*
X276466D01*
X270468Y282527D02*
X267469D01*
X266470Y283527D01*
X267469Y284526D01*
X269469D01*
X270468Y285526D01*
X269469Y286526D01*
X266470D01*
X264470Y282527D02*
X262471D01*
X263471D01*
Y286526D01*
X264470D01*
X257473Y280528D02*
X256473D01*
X255473Y281527D01*
Y286526D01*
X258472D01*
X259472Y285526D01*
Y283527D01*
X258472Y282527D01*
X255473D01*
X253474D02*
Y286526D01*
X250475D01*
X249475Y285526D01*
Y282527D01*
X241478Y288525D02*
Y282527D01*
X238479D01*
X237479Y283527D01*
Y284526D01*
X238479Y285526D01*
X241478D01*
X238479D01*
X237479Y286526D01*
Y287525D01*
X238479Y288525D01*
X241478D01*
X235480Y286526D02*
Y283527D01*
X234480Y282527D01*
X231481D01*
Y281527D01*
X232481Y280528D01*
X233480D01*
X231481Y282527D02*
Y286526D01*
X223484Y282527D02*
Y286526D01*
X221484Y288525D01*
X219485Y286526D01*
Y282527D01*
Y285526D01*
X223484D01*
X217486Y288525D02*
X213487D01*
Y287525D01*
X217486Y283527D01*
Y282527D01*
X213487D01*
X211488Y288525D02*
X207489D01*
X209488D01*
Y282527D01*
X202490D02*
X204490D01*
X205489Y283527D01*
Y285526D01*
X204490Y286526D01*
X202490D01*
X201491Y285526D01*
Y284526D01*
X205489D01*
X198492Y286526D02*
X196492D01*
X195493Y285526D01*
Y282527D01*
X198492D01*
X199491Y283527D01*
X198492Y284526D01*
X195493D01*
X479315Y446882D02*
Y450880D01*
X477316Y452880D01*
X475316Y450880D01*
Y446882D01*
Y449881D01*
X479315D01*
X469318Y451880D02*
X470318Y452880D01*
X472317D01*
X473317Y451880D01*
Y447881D01*
X472317Y446882D01*
X470318D01*
X469318Y447881D01*
X463320Y451880D02*
X464320Y452880D01*
X466319D01*
X467319Y451880D01*
Y450880D01*
X466319Y449881D01*
X464320D01*
X463320Y448881D01*
Y447881D01*
X464320Y446882D01*
X466319D01*
X467319Y447881D01*
X455323Y446882D02*
Y452880D01*
X453323Y450880D01*
X451324Y452880D01*
Y446882D01*
X448325D02*
X446326D01*
X445326Y447881D01*
Y449881D01*
X446326Y450880D01*
X448325D01*
X449325Y449881D01*
Y447881D01*
X448325Y446882D01*
X442327Y451880D02*
Y450880D01*
X443327D01*
X441327D01*
X442327D01*
Y447881D01*
X441327Y446882D01*
X435329D02*
X437328D01*
X438328Y447881D01*
Y449881D01*
X437328Y450880D01*
X435329D01*
X434330Y449881D01*
Y448881D01*
X438328D01*
X432330Y450880D02*
Y446882D01*
Y448881D01*
X431330Y449881D01*
X430331Y450880D01*
X429331D01*
X416335Y451880D02*
X417335Y452880D01*
X419334D01*
X420334Y451880D01*
Y447881D01*
X419334Y446882D01*
X417335D01*
X416335Y447881D01*
X413336Y446882D02*
X411337D01*
X410337Y447881D01*
Y449881D01*
X411337Y450880D01*
X413336D01*
X414336Y449881D01*
Y447881D01*
X413336Y446882D01*
X408338D02*
Y450880D01*
X405339D01*
X404339Y449881D01*
Y446882D01*
X401340Y451880D02*
Y450880D01*
X402340D01*
X400341D01*
X401340D01*
Y447881D01*
X400341Y446882D01*
X397341Y450880D02*
Y446882D01*
Y448881D01*
X396342Y449881D01*
X395342Y450880D01*
X394342D01*
X390344Y446882D02*
X388344D01*
X387345Y447881D01*
Y449881D01*
X388344Y450880D01*
X390344D01*
X391343Y449881D01*
Y447881D01*
X390344Y446882D01*
X385345D02*
X383346D01*
X384346D01*
Y452880D01*
X385345D01*
X374349D02*
Y446882D01*
X371350D01*
X370350Y447881D01*
Y448881D01*
X371350Y449881D01*
X374349D01*
X371350D01*
X370350Y450880D01*
Y451880D01*
X371350Y452880D01*
X374349D01*
X368351Y450880D02*
Y446882D01*
Y448881D01*
X367351Y449881D01*
X366352Y450880D01*
X365352D01*
X358354Y452880D02*
Y446882D01*
X361353D01*
X362353Y447881D01*
Y449881D01*
X361353Y450880D01*
X358354D01*
X350357Y446882D02*
Y452880D01*
X347358D01*
X346358Y451880D01*
Y449881D01*
X347358Y448881D01*
X350357D01*
X344359Y446882D02*
X342359D01*
X343359D01*
Y452880D01*
X344359Y451880D01*
X339360Y445882D02*
X335362D01*
X333362Y452880D02*
Y448881D01*
X331363Y446882D01*
X329363Y448881D01*
Y452880D01*
X327364Y446882D02*
X325365D01*
X326364D01*
Y452880D01*
X327364Y451880D01*
X322366Y446882D02*
Y447881D01*
X321366D01*
Y446882D01*
X322366D01*
X317367Y451880D02*
X316368Y452880D01*
X314368D01*
X313369Y451880D01*
Y447881D01*
X314368Y446882D01*
X316368D01*
X317367Y447881D01*
Y451880D01*
M02*
